<svg xmlns="http://www.w3.org/2000/svg" viewBox="0 0 64 64">
  <defs>
    <linearGradient id="grad3b" x1="0%" y1="0%" x2="100%" y2="100%">
      <stop offset="0%" style="stop-color:#0ea5e9"/>
      <stop offset="100%" style="stop-color:#22d3ee"/>
    </linearGradient>
  </defs>

  <!-- Background -->
  <rect width="64" height="64" rx="14" fill="url(#grad3b)"/>

  <!-- Back note card (narrower at top) -->
  <path d="M20 10 L44 10 L46 28 L18 28 Z" rx="3" fill="white" opacity="0.35"/>
  <rect x="18" y="10" width="28" height="18" rx="3" fill="white" opacity="0.35"/>

  <!-- Front note card (wider at bottom, perspective effect) -->
  <path d="M14 22 C14 20 15 18 17 18 L47 18 C49 18 50 20 50 22 L52 50 C52 52 51 54 49 54 L15 54 C13 54 12 52 12 50 Z" fill="white"/>

  <!-- Text lines on front card -->
  <rect x="18" y="26" width="22" height="3" rx="1.5" fill="#0ea5e9" opacity="0.4"/>
  <rect x="18" y="33" width="16" height="3" rx="1.5" fill="#0ea5e9" opacity="0.4"/>
  <rect x="18" y="40" width="26" height="3" rx="1.5" fill="#0ea5e9" opacity="0.4"/>
</svg>
